<?xml version="1.0" encoding="UTF-8" standalone="no" ?>
<!DOCTYPE svg PUBLIC "-//W3C//DTD SVG 1.1//EN" "http://www.w3.org/Graphics/SVG/1.1/DTD/svg11.dtd">
<svg xmlns="http://www.w3.org/2000/svg" xmlns:xlink="http://www.w3.org/1999/xlink" version="1.1" width="1280" height="1112.6043970105602" viewBox="0 0 1280 1112.6043970105602" xml:space="preserve">
<desc>Created with Fabric.js 5.3.0</desc>
<defs>
</defs>
<g transform="matrix(1 0 0 1 640 556.3021985052801)" id="background-logo"  >
<rect style="stroke: none; stroke-width: 0; stroke-dasharray: none; stroke-linecap: butt; stroke-dashoffset: 0; stroke-linejoin: miter; stroke-miterlimit: 4; fill: rgb(255,255,255); fill-opacity: 0; fill-rule: nonzero; opacity: 1;"  paint-order="stroke"  x="-1307.2306193633535" y="-1045.784495490683" rx="0" ry="0" width="2614.461238726707" height="2091.568990981366" />
</g>
<g transform="matrix(4.02224805957955 0 0 4.02224805957955 636.1649917024919 369.21458768595073)" id="logo-logo"  >
<g style=""  paint-order="stroke"   >
		<g transform="matrix(0.917930923744532 0 0 0.9179309237445321 0 0)"  >
<g style=""  paint-order="stroke"   >
		<g transform="matrix(1 0 0 1 0 0)"  >
<linearGradient id="SVGID_24_450705" gradientUnits="userSpaceOnUse" gradientTransform="matrix(1 0 0 1 -100 -100)"  x1="0" y1="0" x2="0" y2="200">
<stop offset="0%" style="stop-color:rgb(23,234,217);stop-opacity: 1"/>
<stop offset="100%" style="stop-color:rgb(96,120,234);stop-opacity: 1"/>
</linearGradient>
<polygon style="stroke: none; stroke-width: 1; stroke-dasharray: none; stroke-linecap: butt; stroke-dashoffset: 0; stroke-linejoin: miter; stroke-miterlimit: 4; fill: url(#SVGID_24_450705); fill-rule: nonzero; opacity: 1;"  paint-order="stroke"  points="100,100 0,100 0,95.12 95.12,95.12 95.12,-95.12 -95.12,-95.12 -95.12,0 -100,0 -100,-100 100,-100 100,100 " />
</g>
</g>
</g>
</g>
</g>
<g transform="matrix(4.02224805957955 0 0 4.02224805957955 640.0000000000001 930.4611807540682)" id="text-logo"  >
<g style=""  paint-order="stroke"   >
		<g transform="matrix(1 0 0 1 0 0)" id="text-logo-path-0"  >
<path style="stroke: rgb(255,255,255); stroke-width: 0; stroke-dasharray: none; stroke-linecap: butt; stroke-dashoffset: 0; stroke-linejoin: miter; stroke-miterlimit: 4; fill: rgb(49,192,223); fill-rule: nonzero; opacity: 1;"  paint-order="stroke"  transform=" translate(-163.02499999999998, 16.099999999999998)" d="M 3.91 -25.3 L 3.91 -6.9 C 3.91 -0.74 7.41 0.46 11.73 0.46 C 16.1 0.46 19.55 -0.83 19.55 -6.9 L 19.55 -25.3 C 19.55 -31.46 16.1 -32.66 11.73 -32.66 C 7.41 -32.66 3.91 -31.46 3.91 -25.3 Z M 7.13 -7.82 L 7.13 -24.38 C 7.13 -28.57 8.92 -29.44 11.73 -29.44 C 14.54 -29.44 16.33 -28.57 16.33 -24.38 L 16.33 -7.82 C 16.33 -3.63 14.54 -2.76 11.73 -2.76 C 8.92 -2.76 7.13 -3.63 7.13 -7.82 Z M 50.97 -32.2 L 44.07 -32.2 L 44.07 0 L 50.97 0 C 55.34 0 58.79 -1.29 58.79 -7.36 L 58.79 -24.84 C 58.79 -31 55.34 -32.2 50.97 -32.2 Z M 47.29 -2.76 L 47.29 -29.44 L 50.97 -29.44 C 53.77 -29.44 55.57 -28.57 55.57 -24.38 L 55.57 -7.82 C 55.57 -3.63 53.77 -2.76 50.97 -2.76 Z M 89.29 -32.2 L 81.93 -32.2 L 81.93 -29.44 L 84 -29.44 L 84 -2.76 L 81.93 -2.76 L 81.93 0 L 89.29 0 L 89.29 -2.76 L 87.22 -2.76 L 87.22 -29.44 L 89.29 -29.44 Z M 120.01 0.46 C 124.34 0.46 127.83 -0.74 127.83 -6.9 L 127.83 -7.82 C 127.83 -15.23 115.41 -19.96 115.41 -24.38 C 115.41 -28.57 117.21 -29.44 120.01 -29.44 C 122.82 -29.44 124.61 -28.57 124.61 -24.38 L 124.61 -22.54 L 127.83 -22.54 L 127.83 -25.3 C 127.83 -31.46 124.38 -32.66 120.01 -32.66 C 115.69 -32.66 112.19 -31.46 112.19 -25.3 L 112.19 -24.38 C 112.19 -17.76 124.61 -13.02 124.61 -7.82 C 124.61 -3.63 122.82 -2.76 120.01 -2.76 C 117.21 -2.76 115.41 -3.63 115.41 -7.82 L 115.41 -10.21 L 112.19 -10.21 L 112.19 -6.9 C 112.19 -0.83 115.64 0.46 120.01 0.46 Z M 152.12 -32.2 L 152.12 0 L 155.34 0 L 155.34 -15.18 L 164.54 -15.18 L 164.54 0 L 167.76 0 L 167.76 -32.2 L 164.54 -32.2 L 164.54 -17.94 L 155.34 -17.94 L 155.34 -32.2 Z M 190.21 0 L 193.43 0 L 195.27 -8.74 L 203.5 -8.74 L 205.34 0 L 208.56 0 L 201.8 -32.2 L 196.97 -32.2 Z M 195.87 -11.5 L 199.41 -28.38 L 202.95 -11.5 Z M 227.33 -32.2 L 234.09 0 L 238.92 0 L 245.69 -32.2 L 242.47 -32.2 L 236.53 -3.82 L 230.55 -32.2 Z M 267.44 -25.3 L 267.44 -6.9 C 267.44 -0.74 270.94 0.46 275.26 0.46 C 279.63 0.46 283.08 -0.83 283.08 -6.9 L 283.08 -25.3 C 283.08 -31.46 279.63 -32.66 275.26 -32.66 C 270.94 -32.66 267.44 -31.46 267.44 -25.3 Z M 270.66 -7.82 L 270.66 -24.38 C 270.66 -28.57 272.46 -29.44 275.26 -29.44 C 278.07 -29.44 279.86 -28.57 279.86 -24.38 L 279.86 -7.82 C 279.86 -3.63 278.07 -2.76 275.26 -2.76 C 272.46 -2.76 270.66 -3.63 270.66 -7.82 Z M 304.84 0 L 308.2 0 L 313.49 -12.51 L 318.78 0 L 322.14 0 L 315.33 -16.1 L 322.14 -32.2 L 318.78 -32.2 L 313.63 -20.01 L 308.48 -32.2 L 305.12 -32.2 L 311.79 -16.42 Z" stroke-linecap="round" />
</g>
</g>
</g>
<g transform="matrix(4.02224805957955 0 0 4.02224805957955 416.75522996573886 161.75325770669008)" id="tagline-3a78d944-c0db-44d4-8ad5-60158c925687-logo"  >
<g style=""  paint-order="stroke"   >
		<g transform="matrix(1 0 0 1 0 0)" id="tagline-3a78d944-c0db-44d4-8ad5-60158c925687-logo-path-0"  >
<linearGradient id="SVGID_450707" gradientUnits="userSpaceOnUse" gradientTransform="matrix(1 0 0 1 6.460000000000001 -53.96)"  x1="-6.4599999999999795" y1="-12.854640000000003" x2="-6.4599999999999795" y2="73.14536">
<stop offset="0%" style="stop-color:rgb(23,234,217);stop-opacity: 1"/>
<stop offset="100%" style="stop-color:rgb(96,120,234);stop-opacity: 1"/>
</linearGradient>
<path style="stroke: rgb(255,255,255); stroke-width: 0; stroke-dasharray: none; stroke-linecap: butt; stroke-dashoffset: 0; stroke-linejoin: miter; stroke-miterlimit: 4; fill: url(#SVGID_450707); fill-rule: nonzero; opacity: 1;"  paint-order="stroke"  transform=" translate(-19.38, 26.6)" d="M 6.46 -41.8 L 6.46 -11.4 C 6.46 -1.22 12.24 0.76 19.38 0.76 C 26.6 0.76 32.3 -1.37 32.3 -11.4 L 32.3 -41.8 C 32.3 -51.98 26.6 -53.96 19.38 -53.96 C 12.24 -53.96 6.46 -51.98 6.46 -41.8 Z M 11.78 -12.92 L 11.78 -40.28 C 11.78 -47.2 14.74 -48.64 19.38 -48.64 C 24.02 -48.64 26.98 -47.2 26.98 -40.28 L 26.98 -12.92 C 26.98 -6 24.02 -4.56 19.38 -4.56 C 14.74 -4.56 11.78 -6 11.78 -12.92 Z" stroke-linecap="round" />
</g>
</g>
</g>
<g transform="matrix(4.02224805957955 0 0 4.02224805957955 633.8851773874244 1085.092220283036)" id="tagline-ee21041c-fd7a-4646-a088-df0a2334375e-logo"  >
<g style=""  paint-order="stroke"   >
		<g transform="matrix(1 0 0 1 0 0)" id="tagline-ee21041c-fd7a-4646-a088-df0a2334375e-logo-path-0"  >
<path style="stroke: none; stroke-width: 0; stroke-dasharray: none; stroke-linecap: butt; stroke-dashoffset: 0; stroke-linejoin: miter; stroke-miterlimit: 4; fill: rgb(63,171,226); fill-rule: nonzero; opacity: 1;"  paint-order="stroke"  transform=" translate(-157.565, 6.65)" d="M 6.84 -13.3 L 0.57 -13.3 L 0.57 -12.16 L 3.04 -12.16 L 3.04 0 L 4.37 0 L 4.37 -12.16 L 6.84 -12.16 Z M 20.46 -13.3 L 20.46 0 L 26.16 0 L 26.16 -1.14 L 21.79 -1.14 L 21.79 -6.08 L 25.02 -6.08 L 25.02 -7.22 L 21.79 -7.22 L 21.79 -12.16 L 25.97 -12.16 L 25.97 -13.3 Z M 39.03 0 L 40.41 0 L 42.6 -5.17 L 44.78 0 L 46.17 0 L 43.36 -6.65 L 46.17 -13.3 L 44.78 -13.3 L 42.66 -8.27 L 40.53 -13.3 L 39.14 -13.3 L 41.89 -6.78 Z M 64.92 -13.3 L 58.65 -13.3 L 58.65 -12.16 L 61.12 -12.16 L 61.12 0 L 62.45 0 L 62.45 -12.16 L 64.92 -12.16 Z M 96.16 0.19 C 97.95 0.19 99.39 -0.3 99.39 -2.85 L 99.39 -5.7 L 100.66 -5.7 L 100.66 -6.84 L 97.11 -6.84 L 97.11 -5.7 L 98.06 -5.7 L 98.06 -3.23 C 98.06 -1.5 97.32 -1.14 96.16 -1.14 C 95 -1.14 94.26 -1.5 94.26 -3.23 L 94.28 -3.61 C 94.37 -5.34 95.02 -5.7 96.18 -5.7 L 96.18 -5.7 L 96.35 -5.7 L 96.35 -6.84 C 95.19 -6.84 94.54 -7.2 94.45 -8.93 C 94.45 -10.66 95.19 -11.21 96.35 -11.21 C 97.51 -11.21 98.06 -10.85 98.06 -9.12 L 98.06 -8.74 L 99.39 -8.74 L 99.39 -9.5 C 99.39 -12.05 98.15 -12.54 96.35 -12.54 C 94.56 -12.54 93.12 -11.86 93.12 -9.31 C 93.12 -7.87 93.5 -6.95 94.11 -6.4 C 93.42 -5.98 92.99 -5.19 92.95 -3.8 L 92.93 -2.85 C 92.93 -0.34 94.37 0.19 96.16 0.19 Z M 131.92 0.19 C 133.7 0.19 135.15 -0.3 135.15 -2.85 L 135.15 -3.23 C 135.15 -6.29 130.02 -8.25 130.02 -10.07 C 130.02 -11.8 130.76 -12.16 131.92 -12.16 C 133.08 -12.16 133.82 -11.8 133.82 -10.07 L 133.82 -9.31 L 135.15 -9.31 L 135.15 -10.45 C 135.15 -13 133.72 -13.49 131.92 -13.49 C 130.13 -13.49 128.69 -13 128.69 -10.45 L 128.69 -10.07 C 128.69 -7.33 133.82 -5.38 133.82 -3.23 C 133.82 -1.5 133.08 -1.14 131.92 -1.14 C 130.76 -1.14 130.02 -1.5 130.02 -3.23 L 130.02 -4.22 L 128.69 -4.22 L 128.69 -2.85 C 128.69 -0.34 130.11 0.19 131.92 0.19 Z M 149.53 0 L 150.86 0 L 150.86 -4.75 L 152.19 -4.75 C 154 -4.75 155.42 -5.28 155.42 -7.79 L 155.42 -10.26 C 155.42 -12.81 154 -13.3 152.19 -13.3 L 149.53 -13.3 Z M 150.86 -5.89 L 150.86 -12.16 L 152.19 -12.16 C 153.35 -12.16 154.09 -11.8 154.09 -10.07 L 154.09 -7.98 C 154.09 -6.25 153.35 -5.89 152.19 -5.89 Z M 169.61 -13.3 L 169.61 0 L 175.31 0 L 175.31 -1.14 L 170.94 -1.14 L 170.94 -6.08 L 174.17 -6.08 L 174.17 -7.22 L 170.94 -7.22 L 170.94 -12.16 L 175.12 -12.16 L 175.12 -13.3 Z M 189.32 -13.3 L 189.32 0 L 195.02 0 L 195.02 -1.14 L 190.65 -1.14 L 190.65 -6.08 L 193.88 -6.08 L 193.88 -7.22 L 190.65 -7.22 L 190.65 -12.16 L 194.83 -12.16 L 194.83 -13.3 Z M 213.86 -10.07 L 213.86 -8.17 L 215.19 -8.17 L 215.19 -10.45 C 215.19 -13 213.77 -13.49 211.96 -13.49 C 210.18 -13.49 208.73 -13 208.73 -10.45 L 208.73 -2.85 C 208.73 -0.3 210.18 0.19 211.96 0.19 C 213.77 0.19 215.19 -0.34 215.19 -2.85 L 215.19 -3.65 L 213.86 -3.65 L 213.86 -3.23 C 213.86 -1.5 213.12 -1.14 211.96 -1.14 C 210.81 -1.14 210.06 -1.5 210.06 -3.23 L 210.06 -10.07 C 210.06 -11.8 210.81 -12.16 211.96 -12.16 C 213.12 -12.16 213.86 -11.8 213.86 -10.07 Z M 229.67 -13.3 L 229.67 0 L 231 0 L 231 -6.27 L 234.8 -6.27 L 234.8 0 L 236.13 0 L 236.13 -13.3 L 234.8 -13.3 L 234.8 -7.41 L 231 -7.41 L 231 -13.3 Z M 266.04 -13.3 L 266.04 0 L 267.37 0 L 267.37 -6.27 L 271.17 -6.27 L 271.17 0 L 272.5 0 L 272.5 -13.3 L 271.17 -13.3 L 271.17 -7.41 L 267.37 -7.41 L 267.37 -13.3 Z M 288.59 -3.23 L 288.59 -13.3 L 287.26 -13.3 L 287.26 -2.85 C 287.26 -0.3 288.71 0.19 290.49 0.19 C 292.3 0.19 293.72 -0.3 293.72 -2.85 L 293.72 -13.3 L 292.39 -13.3 L 292.39 -3.23 C 292.39 -1.5 291.65 -1.14 290.49 -1.14 C 289.33 -1.14 288.59 -1.5 288.59 -3.23 Z M 308.48 0 L 311.33 0 C 313.14 0 314.56 -0.53 314.56 -3.04 L 314.56 -4.56 C 314.56 -6.02 314.09 -6.69 313.33 -6.97 C 313.98 -7.31 314.37 -7.98 314.37 -9.31 L 314.37 -10.26 C 314.37 -12.81 312.95 -13.3 311.14 -13.3 L 308.48 -13.3 Z M 309.81 -1.14 L 309.81 -6.46 L 311.33 -6.46 C 312.49 -6.46 313.23 -6.1 313.23 -4.18 L 313.23 -3.23 C 313.23 -1.5 312.49 -1.14 311.33 -1.14 Z M 309.81 -7.41 L 309.81 -12.16 L 311.14 -12.16 C 312.3 -12.16 313.04 -11.8 313.04 -10.07 L 313.04 -9.5 C 313.04 -7.77 312.3 -7.41 311.14 -7.41 Z" stroke-linecap="round" />
</g>
</g>
</g>
<g transform="matrix(4.02224805957955 0 0 4.02224805957955 846.9027385689617 554.7517697218998)" id="tagline-c50291a0-6aaf-4fe8-9517-9c83d7a56080-logo"  >
<g style=""  paint-order="stroke"   >
		<g transform="matrix(1 0 0 1 0 0)" id="tagline-c50291a0-6aaf-4fe8-9517-9c83d7a56080-logo-path-0"  >
<linearGradient id="SVGID_450708" gradientUnits="userSpaceOnUse" gradientTransform="matrix(1 0 0 1 3.039999999999999 -53.2)"  x1="-3.0020005798339753" y1="-13.614640000000009" x2="-3.0020005798339753" y2="72.38535999999999">
<stop offset="0%" style="stop-color:rgb(23,234,217);stop-opacity: 1"/>
<stop offset="100%" style="stop-color:rgb(96,120,234);stop-opacity: 1"/>
</linearGradient>
<path style="stroke: rgb(255,255,255); stroke-width: 0; stroke-dasharray: none; stroke-linecap: butt; stroke-dashoffset: 0; stroke-linejoin: miter; stroke-miterlimit: 4; fill: url(#SVGID_450708); fill-rule: nonzero; opacity: 1;"  paint-order="stroke"  transform=" translate(-18.2, 26.6)" d="M 3.04 -53.2 L 14.21 0 L 22.19 0 L 33.36 -53.2 L 28.04 -53.2 L 18.24 -6.31 L 8.36 -53.2 Z" stroke-linecap="round" />
</g>
</g>
</g>
<g transform="matrix(1.1492864594354348 0 0 1.1492864594354348 635.9294849637056 369.21458768595073)" id="shape-d808d2f2-4ee2-4ec9-8ab0-7d7e3d14aea8"  >
<g style=""  paint-order="stroke"   >
		<g transform="matrix(1 0 0 1 0 0)" id="path-01"  >
<path style="stroke: none; stroke-width: 1; stroke-dasharray: none; stroke-linecap: butt; stroke-dashoffset: 0; stroke-linejoin: miter; stroke-miterlimit: 4; fill: rgb(145,219,232); fill-rule: nonzero; opacity: 1;"  paint-order="stroke"  transform=" translate(-78.00154500000578, -125)" d="M 141.50548 75.2187 L 138.33586 75.2187 C 137.82805 75.2187 137.35823 75.36312 136.94592 75.59701 C 136.14802 75.3522 135.30175 75.2187 134.42465 75.2187 L 131.08896000000001 75.2187 L 131.08896000000001 29.7206 C 131.08896 13.33275 117.75572 0 101.36739 0 L 54.63571 0 C 38.24738 0 24.91463 13.33275 24.91463 29.7206 L 24.91463 75.2187 L 21.57798 75.2187 C 20.700870000000002 75.2187 19.85466 75.3522 19.0567 75.59706 C 18.64445 75.36311 18.17464 75.2187 17.66677 75.2187 L 14.49762 75.2187 C 6.50341 75.2187 0 81.72211 0 89.71632 L 0 106.13996999999999 C 0 113.16407 5.02215 119.03339 11.66348 120.35538 L 11.66348 128.12072 C 11.66348 150.708 30.03938 169.08437 52.62666 169.08437 L 62.27106 169.08437 L 62.27106 207.60614 C 40.20603 210.3649 26.09572 218.3819 26.09572 228.32324 C 26.09572 240.68106 48.41003 250 78.00131 250 C 103.16361 250 129.90738 242.40283 129.90738 228.32324 C 129.90738 218.38386 115.79766999999998 210.36894 93.73299999999999 207.60788 L 93.73299999999999 169.08436999999998 L 103.37644999999999 169.08436999999998 C 125.96372 169.08436999999998 144.3401 150.70799999999997 144.3401 128.12071999999998 L 144.3401 120.35532999999998 C 150.98118 119.03321999999999 156.00309000000001 113.16389999999998 156.00309000000001 106.13997999999998 L 156.00309000000001 89.71632 C 156.0031 81.72211 149.49969 75.2187 141.50548 75.2187 z M 134.42465 80.887 C 136.04716000000002 80.887 137.36616 82.20696 137.36616 83.82899 L 137.36616 105.00993 C 137.36616 106.63197 136.04716000000002 107.95193 134.42465 107.95193 L 131.08896000000001 107.95193 L 131.08896000000001 80.887 L 134.42465 80.887 z M 98.67212 121.06183 C 97.10687 121.06183 95.83749 122.33073 95.83749 123.89597 L 95.83749 150.43693000000002 L 80.83594 150.43693000000002 L 80.83594 123.89597000000002 C 80.83594 122.33072000000001 79.56656 121.06183000000001 78.00130999999999 121.06183000000001 C 76.43605999999998 121.06183000000001 75.16716999999998 122.33073000000002 75.16716999999998 123.89597000000002 L 75.16716999999998 150.43693000000002 L 60.16466 150.43693000000002 L 60.16466 123.89597000000002 C 60.16466 122.33072000000001 58.895759999999996 121.06183000000001 57.33051 121.06183000000001 C 55.76526 121.06183000000001 54.49637 122.33073000000002 54.49637 123.89597000000002 L 54.49637 150.43341 C 41.29795 150.35771 30.582929999999998 139.60052000000002 30.582929999999998 126.38462000000001 L 30.582929999999998 113.62022000000002 L 125.41971999999998 113.62022000000002 L 125.41971999999998 126.38462000000001 C 125.41971999999998 139.60052000000002 114.70516999999998 150.35771 101.50675999999999 150.43341 L 101.50675999999999 123.89597 C 101.50674 122.33073 100.23737 121.06183 98.67212 121.06183 z M 30.58292 107.95193 L 30.58292 80.887 L 125.41971 80.887 L 125.41971 107.95193 L 30.58292 107.95193 z M 30.58292 57.84256 L 58.93489 57.84256 C 60.50014 57.84256 61.769040000000004 56.57366 61.769040000000004 55.00841 C 61.769040000000004 53.44316 60.50014 52.17427 58.93489 52.17427 L 30.58292 52.17427 L 30.58292 29.7206 C 30.58292 16.5047 41.297940000000004 5.747510000000002 54.49636 5.671810000000001 L 54.49636 36.69167 C 54.49636 38.25692 55.765260000000005 39.52582 57.3305 39.52582 C 58.895739999999996 39.52582 60.16465 38.25692 60.16465 36.69167 L 60.16465 5.66829 L 75.16716 5.66829 L 75.16716 36.69167 C 75.16716 38.25692 76.43606 39.52582 78.0013 39.52582 C 79.56654 39.52582 80.83593 38.25692 80.83593 36.69167 L 80.83593 5.66829 L 95.83749 5.66829 L 95.83749 36.69167 C 95.83749 38.25692 97.10687 39.52582 98.67212 39.52582 C 100.23737000000001 39.52582 101.50675000000001 38.25692 101.50675000000001 36.69167 L 101.50675000000001 5.67181 C 114.70517000000001 5.74751 125.41971000000001 16.5047 125.41971000000001 29.7206 L 125.41971000000001 52.174260000000004 L 97.06774 52.174260000000004 C 95.50249 52.174260000000004 94.23311 53.443160000000006 94.23311 55.0084 C 94.23311 56.57364 95.50249 57.84255 97.06774 57.84255 L 125.41971000000001 57.84255 L 125.41971000000001 75.2187 L 30.58292 75.2187 L 30.58292 57.84256 z M 24.91463 80.887 L 24.91463 107.95193 L 21.57798 107.95193 C 19.95595 107.95193 18.63598 106.63197000000001 18.63598 105.00993 L 18.63598 83.82899 C 18.63598 82.20696000000001 19.95594 80.887 21.57798 80.887 L 24.91463 80.887 z M 5.66829 106.13997 L 5.66829 89.71632 C 5.66829 85.195 9.08606 81.4618 13.47269 80.9516 C 13.15165 81.85299 12.96768 82.8188 12.96768 83.829 L 12.96768 105.00994 C 12.96768 109.7577 16.83021 113.62023 21.57797 113.62023 L 24.91462 113.62023 L 24.91462 114.96931000000001 L 14.49762 114.96931000000001 C 9.62913 114.9693 5.66829 111.00846 5.66829 106.13997 z M 124.23814 228.32324 C 124.23814 235.89464 105.24997 244.33075 78.00131999999999 244.33075 C 50.75313999999999 244.33075 31.764019999999995 235.89463999999998 31.764019999999995 228.32324 C 31.764019999999995 222.84726 42.43388999999999 215.93953 62.27105999999999 213.32377 L 62.27105999999999 215.42521 C 62.27105999999999 224.09897999999998 69.32755999999999 231.15595 78.00131999999999 231.15595 C 86.67603 231.15595 93.73301 224.09896999999998 93.73301 215.42521 L 93.73301 213.32562 C 113.5694 215.94347 124.23814 222.84935 124.23814 228.32324 z M 88.06375 215.42522 C 88.06375 220.97326999999999 83.55031 225.48671 78.00131 225.48671 C 72.45328 225.48671 67.93935 220.97326999999999 67.93935 215.42522 L 67.93935 169.08436999999998 L 88.06375 169.08436999999998 L 88.06375 215.42522 z M 103.37645 163.41512 L 52.62666 163.41512 C 33.1651 163.41512 17.331780000000002 147.58226 17.331780000000002 128.12072 L 17.331780000000002 120.6376 L 24.914640000000002 120.6376 L 24.914640000000002 126.38463 C 24.914640000000002 142.77296 38.2474 156.1062 54.635720000000006 156.1062 L 101.36741 156.1062 C 117.75574 156.1062 131.08898 142.77296 131.08898 126.38463 L 131.08898 120.6376 L 138.67086999999998 120.6376 L 138.67086999999998 128.12072 C 138.67085 147.58226 122.83801 163.41512 103.37645 163.41512 z M 150.33386 106.13997 C 150.33386 111.00846 146.37398 114.9693 141.50547999999998 114.9693 L 131.08896 114.9693 L 131.08896 113.62022 L 134.42464999999999 113.62022 C 139.17288 113.62022 143.03540999999998 109.75769 143.03540999999998 105.00993 L 143.03540999999998 83.82899 C 143.03540999999998 82.81880000000001 142.85144999999997 81.85298 142.53041 80.95159000000001 C 146.91691999999998 81.46179000000001 150.33386 85.19500000000001 150.33386 89.71631000000001 L 150.33386 106.13997 z" stroke-linecap="round" />
</g>
</g>
</g>
</svg>